<svg width="500" height="43" viewBox="0 0 500 43" fill="none" xmlns="http://www.w3.org/2000/svg">
<line y1="21.5" x2="500" y2="21.5" stroke="#9F9F9F"/>
<rect x="200.5" y="0.5" width="99" height="42" rx="9.5" fill="#F1FBFB" stroke="#9F9F9F"/>
<path d="M224.258 30V13.2H226.01V27.12L236.762 13.2H238.37V30H236.618V16.104L225.866 30H224.258ZM245.557 13.2H256.957V30H255.205V14.736H247.093L246.901 20.352C246.661 27.072 245.605 30.168 242.557 30.168C242.125 30.168 241.717 30.12 241.213 30L241.357 28.416C241.669 28.488 241.885 28.512 242.149 28.512C244.285 28.512 245.101 26.064 245.317 20.4L245.557 13.2ZM262.625 30V13.2H264.377V27.12L275.129 13.2H276.737V30H274.985V16.104L264.233 30H262.625Z" fill="#9F9F9F"/>
</svg>
