<svg width="30" height="24" viewBox="0 0 30 24" fill="none" xmlns="http://www.w3.org/2000/svg">
<path d="M30 9.91673V10.7501C30 11.4404 29.4404 12.0001 28.75 12.0001H28.3333L26.9733 21.5203C26.7973 22.7519 25.7426 23.6667 24.4984 23.6667H5.50156C4.25745 23.6667 3.20266 22.7519 3.02667 21.5203L1.66667 12.0001H1.25C0.559635 12.0001 0 11.4404 0 10.7501V9.91673C0 9.22637 0.559635 8.66673 1.25 8.66673H4.75734L10.3188 1.01981C10.8602 0.275431 11.9025 0.110795 12.647 0.652202C13.3914 1.19361 13.556 2.23595 13.0146 2.98038L8.87901 8.66673H21.121L16.9854 2.98033C16.444 2.23595 16.6086 1.19356 17.3531 0.652149C18.0974 0.110743 19.1398 0.275327 19.6812 1.01975L25.2427 8.66673H28.75C29.4404 8.66673 30 9.22637 30 9.91673ZM16.25 19.0834V13.2501C16.25 12.5597 15.6904 12.0001 15 12.0001C14.3096 12.0001 13.75 12.5597 13.75 13.2501V19.0834C13.75 19.7738 14.3096 20.3334 15 20.3334C15.6904 20.3334 16.25 19.7738 16.25 19.0834ZM22.0833 19.0834V13.2501C22.0833 12.5597 21.5237 12.0001 20.8333 12.0001C20.143 12.0001 19.5833 12.5597 19.5833 13.2501V19.0834C19.5833 19.7738 20.143 20.3334 20.8333 20.3334C21.5237 20.3334 22.0833 19.7738 22.0833 19.0834ZM10.4167 19.0834V13.2501C10.4167 12.5597 9.85703 12.0001 9.16667 12.0001C8.4763 12.0001 7.91667 12.5597 7.91667 13.2501V19.0834C7.91667 19.7738 8.4763 20.3334 9.16667 20.3334C9.85703 20.3334 10.4167 19.7738 10.4167 19.0834Z" fill="#18CDCA"/>
</svg>
