<svg width="23" height="22" viewBox="0 0 23 22" fill="none" xmlns="http://www.w3.org/2000/svg">
<path d="M21.4688 4H17.8438V1.8125C17.8438 0.847266 17.031 0.0625 16.0312 0.0625H6.96875C5.96904 0.0625 5.15625 0.847266 5.15625 1.8125V4H1.53125C1.02998 4 0.625 4.39102 0.625 4.875V5.75C0.625 5.87031 0.726953 5.96875 0.851562 5.96875H2.56211L3.26162 20.2695C3.30693 21.202 4.10557 21.9375 5.07129 21.9375H17.9287C18.8973 21.9375 19.6931 21.2047 19.7384 20.2695L20.4379 5.96875H22.1484C22.273 5.96875 22.375 5.87031 22.375 5.75V4.875C22.375 4.39102 21.97 4 21.4688 4ZM15.8047 4H7.19531V2.03125H15.8047V4Z" fill="#18CDCA"/>
</svg>
