<svg width="285" height="51" viewBox="0 0 285 51" fill="none" xmlns="http://www.w3.org/2000/svg">
<path d="M23.6568 1.77409L17.1879 14.9607L2.71444 17.0822C0.118925 17.4606 -0.92126 20.6776 0.96098 22.5202L11.4322 32.7787L8.95555 47.27C8.50975 49.8894 11.2539 51.8515 13.5522 50.6264L26.5 43.7841L39.4478 50.6264C41.7461 51.8415 44.4903 49.8894 44.0445 47.27L41.5678 32.7787L52.039 22.5202C53.9213 20.6776 52.8811 17.4606 50.2856 17.0822L35.8121 14.9607L29.3432 1.77409C28.1841 -0.5764 24.8258 -0.606279 23.6568 1.77409Z" fill="#FFDA5B"/>
<path d="M81.6568 1.77409L75.1879 14.9607L60.7144 17.0822C58.1189 17.4606 57.0787 20.6776 58.961 22.5202L69.4322 32.7787L66.9555 47.27C66.5098 49.8894 69.2539 51.8515 71.5522 50.6264L84.5 43.7841L97.4478 50.6264C99.7461 51.8415 102.49 49.8894 102.044 47.27L99.5678 32.7787L110.039 22.5202C111.921 20.6776 110.881 17.4606 108.286 17.0822L93.8121 14.9607L87.3432 1.77409C86.1841 -0.5764 82.8258 -0.606279 81.6568 1.77409Z" fill="#FFDA5B"/>
<path d="M139.657 1.77409L133.188 14.9607L118.714 17.0822C116.119 17.4606 115.079 20.6776 116.961 22.5202L127.432 32.7787L124.956 47.27C124.51 49.8894 127.254 51.8515 129.552 50.6264L142.5 43.7841L155.448 50.6264C157.746 51.8415 160.49 49.8894 160.044 47.27L157.568 32.7787L168.039 22.5202C169.921 20.6776 168.881 17.4606 166.286 17.0822L151.812 14.9607L145.343 1.77409C144.184 -0.5764 140.826 -0.606279 139.657 1.77409Z" fill="#FFDA5B"/>
<path d="M197.657 1.77409L191.188 14.9607L176.714 17.0822C174.119 17.4606 173.079 20.6776 174.961 22.5202L185.432 32.7787L182.956 47.27C182.51 49.8894 185.254 51.8515 187.552 50.6264L200.5 43.7841L213.448 50.6264C215.746 51.8415 218.49 49.8894 218.044 47.27L215.568 32.7787L226.039 22.5202C227.921 20.6776 226.881 17.4606 224.286 17.0822L209.812 14.9607L203.343 1.77409C202.184 -0.5764 198.826 -0.606279 197.657 1.77409Z" fill="#FFDA5B"/>
<path d="M255.657 1.77409L249.188 14.9607L234.714 17.0822C232.119 17.4606 231.079 20.6776 232.961 22.5202L243.432 32.7787L240.956 47.27C240.51 49.8894 243.254 51.8515 245.552 50.6264L258.5 43.7841L271.448 50.6264C273.746 51.8415 276.49 49.8894 276.044 47.27L273.568 32.7787L284.039 22.5202C285.921 20.6776 284.881 17.4606 282.286 17.0822L267.812 14.9607L261.343 1.77409C260.184 -0.5764 256.826 -0.606279 255.657 1.77409Z" fill="#FFDA5B"/>
</svg>
