<svg width="124" height="20" viewBox="0 0 124 20" fill="none" xmlns="http://www.w3.org/2000/svg">
<path d="M6.87952 7.31585L7.39962 7.24003L7.63211 6.76864L9.89929 2.1718C9.89933 2.1717 9.89938 2.17161 9.89943 2.17151C9.89944 2.17148 9.89946 2.17145 9.89947 2.17142C9.91478 2.14057 9.92918 2.13018 9.93817 2.12487C9.95087 2.11737 9.9711 2.11051 9.99716 2.1106C10.0233 2.11068 10.0452 2.11778 10.0599 2.12654C10.0712 2.13321 10.0854 2.14448 10.0995 2.1727C10.0995 2.17289 10.0996 2.17308 10.0997 2.17326L12.3662 6.76864L12.5987 7.24003L13.1188 7.31585L18.1917 8.05544L18.1924 8.05554C18.2245 8.0602 18.2388 8.07017 18.2475 8.0778C18.2593 8.0882 18.2725 8.10605 18.2806 8.13107C18.2887 8.15608 18.2886 8.17834 18.2851 8.19387C18.2825 8.2053 18.2766 8.22217 18.2529 8.24526L18.2526 8.24554L14.5825 11.8219L14.2058 12.189L14.2948 12.7075L15.1628 17.7589C15.1628 17.7589 15.1628 17.7589 15.1628 17.7589C15.1686 17.793 15.163 17.8095 15.159 17.8188C15.1532 17.832 15.141 17.8494 15.1196 17.8648C15.0982 17.8802 15.0762 17.8873 15.0592 17.8888C15.0463 17.89 15.0292 17.8892 15.0028 17.8753L15.0026 17.8752L10.4644 15.4898L9.99915 15.2452L9.53388 15.4898L4.99568 17.8752L4.99254 17.8768C4.96641 17.8907 4.9501 17.8913 4.93825 17.8902C4.92229 17.8888 4.90078 17.882 4.87937 17.8666C4.85808 17.8512 4.84551 17.8336 4.83951 17.8197C4.83524 17.8099 4.82973 17.793 4.83546 17.7592C4.83548 17.7591 4.8355 17.759 4.83552 17.7589L5.70346 12.7075L5.79253 12.189L5.4158 11.8219L1.74566 8.24553L1.74538 8.24526C1.72166 8.22216 1.71579 8.2053 1.71322 8.19387C1.70973 8.17834 1.70956 8.15608 1.71768 8.13107C1.7258 8.10605 1.73899 8.0882 1.7508 8.0778C1.75946 8.07017 1.77378 8.0602 1.80588 8.05554L1.80661 8.05544L6.87952 7.31585Z" stroke="#FFC700" stroke-width="2"/>
<path d="M32.8795 7.31585L33.3996 7.24003L33.6321 6.76864L35.8993 2.1718C35.8993 2.1717 35.8994 2.17161 35.8994 2.17151C35.8994 2.17148 35.8995 2.17145 35.8995 2.17142C35.9148 2.14057 35.9292 2.13018 35.9382 2.12487C35.9509 2.11737 35.9711 2.11051 35.9972 2.1106C36.0233 2.11068 36.0452 2.11778 36.0599 2.12654C36.0712 2.13321 36.0854 2.14448 36.0995 2.1727C36.0995 2.17289 36.0996 2.17308 36.0997 2.17326L38.3662 6.76864L38.5987 7.24003L39.1188 7.31585L44.1917 8.05544L44.1924 8.05554C44.2245 8.0602 44.2388 8.07017 44.2475 8.0778C44.2593 8.0882 44.2725 8.10605 44.2806 8.13107C44.2887 8.15608 44.2886 8.17834 44.2851 8.19387C44.2825 8.2053 44.2766 8.22217 44.2529 8.24526L44.2526 8.24554L40.5825 11.8219L40.2058 12.189L40.2948 12.7075L41.1628 17.7589C41.1628 17.7589 41.1628 17.7589 41.1628 17.7589C41.1686 17.793 41.163 17.8095 41.159 17.8188C41.1532 17.832 41.141 17.8494 41.1196 17.8648C41.0982 17.8802 41.0762 17.8873 41.0592 17.8888C41.0463 17.89 41.0292 17.8892 41.0028 17.8753L41.0026 17.8752L36.4644 15.4898L35.9991 15.2452L35.5339 15.4898L30.9957 17.8752L30.9925 17.8768C30.9664 17.8907 30.9501 17.8913 30.9383 17.8902C30.9223 17.8888 30.9008 17.882 30.8794 17.8666C30.8581 17.8512 30.8455 17.8336 30.8395 17.8197C30.8352 17.8099 30.8297 17.793 30.8355 17.7592C30.8355 17.7591 30.8355 17.759 30.8355 17.7589L31.7035 12.7075L31.7925 12.189L31.4158 11.8219L27.7457 8.24553L27.7454 8.24526C27.7217 8.22216 27.7158 8.2053 27.7132 8.19387C27.7097 8.17834 27.7096 8.15608 27.7177 8.13107C27.7258 8.10605 27.739 8.0882 27.7508 8.0778C27.7595 8.07017 27.7738 8.0602 27.8059 8.05554L27.8066 8.05544L32.8795 7.31585Z" stroke="#FFC700" stroke-width="2"/>
<path d="M58.8795 7.31585L59.3996 7.24003L59.6321 6.76864L61.8993 2.1718C61.8993 2.1717 61.8994 2.17161 61.8994 2.17151C61.8994 2.17148 61.8995 2.17145 61.8995 2.17142C61.9148 2.14057 61.9292 2.13018 61.9382 2.12487C61.9509 2.11737 61.9711 2.11051 61.9972 2.1106C62.0233 2.11068 62.0452 2.11778 62.0599 2.12654C62.0712 2.13321 62.0854 2.14448 62.0995 2.1727C62.0995 2.17289 62.0996 2.17308 62.0997 2.17326L64.3662 6.76864L64.5987 7.24003L65.1188 7.31585L70.1917 8.05544L70.1924 8.05554C70.2245 8.0602 70.2388 8.07017 70.2475 8.0778C70.2593 8.0882 70.2725 8.10605 70.2806 8.13107C70.2887 8.15608 70.2886 8.17834 70.2851 8.19387C70.2825 8.2053 70.2766 8.22217 70.2529 8.24526L70.2526 8.24554L66.5825 11.8219L66.2058 12.189L66.2948 12.7075L67.1628 17.7589C67.1628 17.7589 67.1628 17.7589 67.1628 17.7589C67.1686 17.793 67.163 17.8095 67.159 17.8188C67.1532 17.832 67.141 17.8494 67.1196 17.8648C67.0982 17.8802 67.0762 17.8873 67.0592 17.8888C67.0463 17.89 67.0292 17.8892 67.0028 17.8753L67.0026 17.8752L62.4644 15.4898L61.9991 15.2452L61.5339 15.4898L56.9957 17.8752L56.9925 17.8768C56.9664 17.8907 56.9501 17.8913 56.9383 17.8902C56.9223 17.8888 56.9008 17.882 56.8794 17.8666C56.8581 17.8512 56.8455 17.8336 56.8395 17.8197C56.8352 17.8099 56.8297 17.793 56.8355 17.7592C56.8355 17.7591 56.8355 17.759 56.8355 17.7589L57.7035 12.7075L57.7925 12.189L57.4158 11.8219L53.7457 8.24553L53.7454 8.24526C53.7217 8.22216 53.7158 8.2053 53.7132 8.19387C53.7097 8.17834 53.7096 8.15608 53.7177 8.13107C53.7258 8.10605 53.739 8.0882 53.7508 8.0778C53.7595 8.07017 53.7738 8.0602 53.8059 8.05554L53.8066 8.05544L58.8795 7.31585Z" stroke="#FFC700" stroke-width="2"/>
<path d="M84.8795 7.31585L85.3996 7.24003L85.6321 6.76864L87.8993 2.1718C87.8993 2.1717 87.8994 2.17161 87.8994 2.17151C87.8994 2.17148 87.8995 2.17145 87.8995 2.17142C87.9148 2.14057 87.9292 2.13018 87.9382 2.12487C87.9509 2.11737 87.9711 2.11051 87.9972 2.1106C88.0233 2.11068 88.0452 2.11778 88.0599 2.12654C88.0712 2.13321 88.0854 2.14448 88.0995 2.1727C88.0995 2.17289 88.0996 2.17308 88.0997 2.17326L90.3662 6.76864L90.5987 7.24003L91.1188 7.31585L96.1917 8.05544L96.1924 8.05554C96.2245 8.0602 96.2388 8.07017 96.2475 8.0778C96.2593 8.0882 96.2725 8.10605 96.2806 8.13107C96.2887 8.15608 96.2886 8.17834 96.2851 8.19387C96.2825 8.2053 96.2766 8.22217 96.2529 8.24526L96.2526 8.24554L92.5825 11.8219L92.2058 12.189L92.2948 12.7075L93.1628 17.7589C93.1628 17.7589 93.1628 17.7589 93.1628 17.7589C93.1686 17.793 93.163 17.8095 93.159 17.8188C93.1532 17.832 93.141 17.8494 93.1196 17.8648C93.0982 17.8802 93.0762 17.8873 93.0592 17.8888C93.0463 17.89 93.0292 17.8892 93.0028 17.8753L93.0026 17.8752L88.4644 15.4898L87.9991 15.2452L87.5339 15.4898L82.9957 17.8752L82.9925 17.8768C82.9664 17.8907 82.9501 17.8913 82.9383 17.8902C82.9223 17.8888 82.9008 17.882 82.8794 17.8666C82.8581 17.8512 82.8455 17.8336 82.8395 17.8197C82.8352 17.8099 82.8297 17.793 82.8355 17.7592C82.8355 17.7591 82.8355 17.759 82.8355 17.7589L83.7035 12.7075L83.7925 12.189L83.4158 11.8219L79.7457 8.24553L79.7454 8.24526C79.7217 8.22216 79.7158 8.2053 79.7132 8.19387C79.7097 8.17834 79.7096 8.15608 79.7177 8.13107C79.7258 8.10605 79.739 8.0882 79.7508 8.0778C79.7595 8.07017 79.7738 8.0602 79.8059 8.05554L79.8066 8.05544L84.8795 7.31585Z" stroke="#FFC700" stroke-width="2"/>
<path d="M110.88 7.31585L111.4 7.24003L111.632 6.76864L113.899 2.1718C113.899 2.1717 113.899 2.17161 113.899 2.17151C113.899 2.17148 113.899 2.17145 113.899 2.17142C113.915 2.14057 113.929 2.13018 113.938 2.12487C113.951 2.11737 113.971 2.11051 113.997 2.1106C114.023 2.11068 114.045 2.11778 114.06 2.12654C114.071 2.13321 114.085 2.14448 114.099 2.1727C114.1 2.17289 114.1 2.17308 114.1 2.17326L116.366 6.76864L116.599 7.24003L117.119 7.31585L122.192 8.05544L122.192 8.05554C122.225 8.0602 122.239 8.07017 122.247 8.0778C122.259 8.0882 122.272 8.10605 122.281 8.13107C122.289 8.15608 122.289 8.17834 122.285 8.19387C122.283 8.2053 122.277 8.22217 122.253 8.24526L122.253 8.24554L118.582 11.8219L118.206 12.189L118.295 12.7075L119.163 17.7589C119.163 17.7589 119.163 17.7589 119.163 17.7589C119.169 17.793 119.163 17.8095 119.159 17.8188C119.153 17.832 119.141 17.8494 119.12 17.8648C119.098 17.8802 119.076 17.8873 119.059 17.8888C119.046 17.89 119.029 17.8892 119.003 17.8753L119.003 17.8752L114.464 15.4898L113.999 15.2452L113.534 15.4898L108.996 17.8752L108.993 17.8768C108.966 17.8907 108.95 17.8913 108.938 17.8902C108.922 17.8888 108.901 17.882 108.879 17.8666C108.858 17.8512 108.846 17.8336 108.84 17.8197C108.835 17.8099 108.83 17.793 108.835 17.7592C108.835 17.7591 108.835 17.759 108.836 17.7589L109.703 12.7075L109.793 12.189L109.416 11.8219L105.746 8.24553L105.745 8.24526C105.722 8.22216 105.716 8.2053 105.713 8.19387C105.71 8.17834 105.71 8.15608 105.718 8.13107C105.726 8.10605 105.739 8.0882 105.751 8.0778C105.759 8.07017 105.774 8.0602 105.806 8.05554L105.807 8.05544L110.88 7.31585Z" stroke="#FFC700" stroke-width="2"/>
</svg>
