<svg width="124" height="20" viewBox="0 0 124 20" fill="none" xmlns="http://www.w3.org/2000/svg">
<path d="M9.00262 1.72909L6.73526 6.32631L1.66234 7.0659C0.752621 7.19784 0.388037 8.31937 1.04776 8.96173L4.7179 12.5381L3.84984 17.5902C3.69359 18.5034 4.6554 19.1874 5.46095 18.7603L9.99915 16.3749L14.5373 18.7603C15.3429 19.184 16.3047 18.5034 16.1485 17.5902L15.2804 12.5381L18.9505 8.96173C19.6103 8.31937 19.2457 7.19784 18.336 7.0659L13.263 6.32631L10.9957 1.72909C10.5894 0.909647 9.41234 0.89923 9.00262 1.72909Z" fill="#FFC700"/>
<path d="M35.0026 1.72909L32.7353 6.32631L27.6623 7.0659C26.7526 7.19784 26.388 8.31937 27.0478 8.96173L30.7179 12.5381L29.8498 17.5902C29.6936 18.5034 30.6554 19.1874 31.461 18.7603L35.9991 16.3749L40.5373 18.7603C41.3429 19.184 42.3047 18.5034 42.1485 17.5902L41.2804 12.5381L44.9505 8.96173C45.6103 8.31937 45.2457 7.19784 44.336 7.0659L39.263 6.32631L36.9957 1.72909C36.5894 0.909647 35.4123 0.89923 35.0026 1.72909Z" fill="#FFC700"/>
<path d="M58.8795 7.31585L59.3996 7.24003L59.6321 6.76864L61.8993 2.1718C61.8993 2.1717 61.8994 2.17161 61.8994 2.17151C61.8994 2.17148 61.8995 2.17145 61.8995 2.17142C61.9148 2.14057 61.9292 2.13018 61.9382 2.12487C61.9509 2.11737 61.9711 2.11051 61.9972 2.1106C62.0233 2.11068 62.0452 2.11778 62.0599 2.12654C62.0712 2.13321 62.0854 2.14448 62.0995 2.1727C62.0995 2.17289 62.0996 2.17308 62.0997 2.17326L64.3662 6.76864L64.5987 7.24003L65.1188 7.31585L70.1917 8.05544L70.1924 8.05554C70.2245 8.0602 70.2388 8.07017 70.2475 8.0778C70.2593 8.0882 70.2725 8.10605 70.2806 8.13107C70.2887 8.15608 70.2886 8.17834 70.2851 8.19387C70.2825 8.2053 70.2766 8.22217 70.2529 8.24526L70.2526 8.24554L66.5825 11.8219L66.2058 12.189L66.2948 12.7075L67.1628 17.7589C67.1628 17.7589 67.1628 17.7589 67.1628 17.7589C67.1686 17.793 67.163 17.8095 67.159 17.8188C67.1532 17.832 67.141 17.8494 67.1196 17.8648C67.0982 17.8802 67.0762 17.8873 67.0592 17.8888C67.0463 17.89 67.0292 17.8892 67.0028 17.8753L67.0026 17.8752L62.4644 15.4898L61.9991 15.2452L61.5339 15.4898L56.9957 17.8752L56.9925 17.8768C56.9664 17.8907 56.9501 17.8913 56.9383 17.8902C56.9223 17.8888 56.9008 17.882 56.8794 17.8666C56.8581 17.8512 56.8455 17.8336 56.8395 17.8197C56.8352 17.8099 56.8297 17.793 56.8355 17.7592C56.8355 17.7591 56.8355 17.759 56.8355 17.7589L57.7035 12.7075L57.7925 12.189L57.4158 11.8219L53.7457 8.24553L53.7454 8.24526C53.7217 8.22216 53.7158 8.2053 53.7132 8.19387C53.7097 8.17834 53.7096 8.15608 53.7177 8.13107C53.7258 8.10605 53.739 8.0882 53.7508 8.0778C53.7595 8.07017 53.7738 8.0602 53.8059 8.05554L53.8066 8.05544L58.8795 7.31585Z" stroke="#FFC700" stroke-width="2"/>
<path d="M84.8795 7.31585L85.3996 7.24003L85.6321 6.76864L87.8993 2.1718C87.8993 2.1717 87.8994 2.17161 87.8994 2.17151C87.8994 2.17148 87.8995 2.17145 87.8995 2.17142C87.9148 2.14057 87.9292 2.13018 87.9382 2.12487C87.9509 2.11737 87.9711 2.11051 87.9972 2.1106C88.0233 2.11068 88.0452 2.11778 88.0599 2.12654C88.0712 2.13321 88.0854 2.14448 88.0995 2.1727C88.0995 2.17289 88.0996 2.17308 88.0997 2.17326L90.3662 6.76864L90.5987 7.24003L91.1188 7.31585L96.1917 8.05544L96.1924 8.05554C96.2245 8.0602 96.2388 8.07017 96.2475 8.0778C96.2593 8.0882 96.2725 8.10605 96.2806 8.13107C96.2887 8.15608 96.2886 8.17834 96.2851 8.19387C96.2825 8.2053 96.2766 8.22217 96.2529 8.24526L96.2526 8.24554L92.5825 11.8219L92.2058 12.189L92.2948 12.7075L93.1628 17.7589C93.1628 17.7589 93.1628 17.7589 93.1628 17.7589C93.1686 17.793 93.163 17.8095 93.159 17.8188C93.1532 17.832 93.141 17.8494 93.1196 17.8648C93.0982 17.8802 93.0762 17.8873 93.0592 17.8888C93.0463 17.89 93.0292 17.8892 93.0028 17.8753L93.0026 17.8752L88.4644 15.4898L87.9991 15.2452L87.5339 15.4898L82.9957 17.8752L82.9925 17.8768C82.9664 17.8907 82.9501 17.8913 82.9383 17.8902C82.9223 17.8888 82.9008 17.882 82.8794 17.8666C82.8581 17.8512 82.8455 17.8336 82.8395 17.8197C82.8352 17.8099 82.8297 17.793 82.8355 17.7592C82.8355 17.7591 82.8355 17.759 82.8355 17.7589L83.7035 12.7075L83.7925 12.189L83.4158 11.8219L79.7457 8.24553L79.7454 8.24526C79.7217 8.22216 79.7158 8.2053 79.7132 8.19387C79.7097 8.17834 79.7096 8.15608 79.7177 8.13107C79.7258 8.10605 79.739 8.0882 79.7508 8.0778C79.7595 8.07017 79.7738 8.0602 79.8059 8.05554L79.8066 8.05544L84.8795 7.31585Z" stroke="#FFC700" stroke-width="2"/>
<path d="M110.88 7.31585L111.4 7.24003L111.632 6.76864L113.899 2.1718C113.899 2.1717 113.899 2.17161 113.899 2.17151C113.899 2.17148 113.899 2.17145 113.899 2.17142C113.915 2.14057 113.929 2.13018 113.938 2.12487C113.951 2.11737 113.971 2.11051 113.997 2.1106C114.023 2.11068 114.045 2.11778 114.06 2.12654C114.071 2.13321 114.085 2.14448 114.099 2.1727C114.1 2.17289 114.1 2.17308 114.1 2.17326L116.366 6.76864L116.599 7.24003L117.119 7.31585L122.192 8.05544L122.192 8.05554C122.225 8.0602 122.239 8.07017 122.247 8.0778C122.259 8.0882 122.272 8.10605 122.281 8.13107C122.289 8.15608 122.289 8.17834 122.285 8.19387C122.283 8.2053 122.277 8.22217 122.253 8.24526L122.253 8.24554L118.582 11.8219L118.206 12.189L118.295 12.7075L119.163 17.7589C119.163 17.7589 119.163 17.7589 119.163 17.7589C119.169 17.793 119.163 17.8095 119.159 17.8188C119.153 17.832 119.141 17.8494 119.12 17.8648C119.098 17.8802 119.076 17.8873 119.059 17.8888C119.046 17.89 119.029 17.8892 119.003 17.8753L119.003 17.8752L114.464 15.4898L113.999 15.2452L113.534 15.4898L108.996 17.8752L108.993 17.8768C108.966 17.8907 108.95 17.8913 108.938 17.8902C108.922 17.8888 108.901 17.882 108.879 17.8666C108.858 17.8512 108.846 17.8336 108.84 17.8197C108.835 17.8099 108.83 17.793 108.835 17.7592C108.835 17.7591 108.835 17.759 108.836 17.7589L109.703 12.7075L109.793 12.189L109.416 11.8219L105.746 8.24553L105.745 8.24526C105.722 8.22216 105.716 8.2053 105.713 8.19387C105.71 8.17834 105.71 8.15608 105.718 8.13107C105.726 8.10605 105.739 8.0882 105.751 8.0778C105.759 8.07017 105.774 8.0602 105.806 8.05554L105.807 8.05544L110.88 7.31585Z" stroke="#FFC700" stroke-width="2"/>
</svg>
