<svg width="124" height="20" viewBox="0 0 124 20" fill="none" xmlns="http://www.w3.org/2000/svg">
<path d="M9.00262 1.72909L6.73526 6.32631L1.66234 7.0659C0.752621 7.19784 0.388037 8.31937 1.04776 8.96173L4.7179 12.5381L3.84984 17.5902C3.69359 18.5034 4.6554 19.1874 5.46095 18.7603L9.99915 16.3749L14.5373 18.7603C15.3429 19.184 16.3047 18.5034 16.1485 17.5902L15.2804 12.5381L18.9505 8.96173C19.6103 8.31937 19.2457 7.19784 18.336 7.0659L13.263 6.32631L10.9957 1.72909C10.5894 0.909647 9.41234 0.89923 9.00262 1.72909Z" fill="#FFC700"/>
<path d="M35.0026 1.72909L32.7353 6.32631L27.6623 7.0659C26.7526 7.19784 26.388 8.31937 27.0478 8.96173L30.7179 12.5381L29.8498 17.5902C29.6936 18.5034 30.6554 19.1874 31.461 18.7603L35.9991 16.3749L40.5373 18.7603C41.3429 19.184 42.3047 18.5034 42.1485 17.5902L41.2804 12.5381L44.9505 8.96173C45.6103 8.31937 45.2457 7.19784 44.336 7.0659L39.263 6.32631L36.9957 1.72909C36.5894 0.909647 35.4123 0.89923 35.0026 1.72909Z" fill="#FFC700"/>
<path d="M61.0026 1.72909L58.7353 6.32631L53.6623 7.0659C52.7526 7.19784 52.388 8.31937 53.0478 8.96173L56.7179 12.5381L55.8498 17.5902C55.6936 18.5034 56.6554 19.1874 57.461 18.7603L61.9991 16.3749L66.5373 18.7603C67.3429 19.184 68.3047 18.5034 68.1485 17.5902L67.2804 12.5381L70.9505 8.96173C71.6103 8.31937 71.2457 7.19784 70.336 7.0659L65.263 6.32631L62.9957 1.72909C62.5894 0.909647 61.4123 0.89923 61.0026 1.72909Z" fill="#FFC700"/>
<g clip-path="url(#clip0_871_5537)">
<path d="M96.9759 6.84738L91.5143 6.05223L89.0737 1.11231C88.8543 0.670888 88.4263 0.447754 87.9983 0.447754C87.5729 0.447754 87.1479 0.667903 86.9278 1.11231L84.4864 6.05186L79.0244 6.84626C78.0449 6.98805 77.6524 8.1929 78.3625 8.8832L82.3136 12.7265L81.3785 18.1548C81.2457 18.9302 81.8647 19.5522 82.558 19.5522C82.742 19.5522 82.9311 19.5086 83.1129 19.4123L87.999 16.8496L92.8849 19.4131C93.0662 19.5082 93.255 19.5515 93.4382 19.5515C94.1323 19.5515 94.7524 18.9317 94.6196 18.156L93.6856 12.7272L97.6375 8.88469C98.3479 8.1944 97.9554 6.98917 96.9759 6.84738ZM92.4334 11.4444L91.7573 12.1019L91.917 13.0302L92.6453 17.2634L88.8345 15.2638L87.9994 14.8257L88.0005 2.99029L89.9046 6.8444L90.3218 7.6888L91.255 7.82462L95.5173 8.44514L92.4334 11.4444Z" fill="#FFC700"/>
</g>
<path d="M113.003 1.72909L110.735 6.32631L105.662 7.0659C104.753 7.19784 104.388 8.31937 105.048 8.96173L108.718 12.5381L107.85 17.5902C107.694 18.5034 108.655 19.1874 109.461 18.7603L113.999 16.3749L118.537 18.7603C119.343 19.184 120.305 18.5034 120.148 17.5902L119.28 12.5381L122.951 8.96173C123.61 8.31937 123.246 7.19784 122.336 7.0659L117.263 6.32631L114.996 1.72909C114.589 0.909647 113.412 0.89923 113.003 1.72909Z" fill="#FFC700"/>
<defs>
<clipPath id="clip0_871_5537">
<rect width="20" height="20" fill="white" transform="translate(78)"/>
</clipPath>
</defs>
</svg>
