<svg width="124" height="20" viewBox="0 0 124 20" fill="none" xmlns="http://www.w3.org/2000/svg">
<path d="M9.00262 1.72909L6.73526 6.32631L1.66234 7.0659C0.752621 7.19784 0.388037 8.31937 1.04776 8.96173L4.7179 12.5381L3.84984 17.5902C3.69359 18.5034 4.6554 19.1874 5.46095 18.7603L9.99915 16.3749L14.5373 18.7603C15.3429 19.184 16.3047 18.5034 16.1485 17.5902L15.2804 12.5381L18.9505 8.96173C19.6103 8.31937 19.2457 7.19784 18.336 7.0659L13.263 6.32631L10.9957 1.72909C10.5894 0.909647 9.41234 0.89923 9.00262 1.72909Z" fill="#FFC700"/>
<path d="M35.0026 1.72909L32.7353 6.32631L27.6623 7.0659C26.7526 7.19784 26.388 8.31937 27.0478 8.96173L30.7179 12.5381L29.8498 17.5902C29.6936 18.5034 30.6554 19.1874 31.461 18.7603L35.9991 16.3749L40.5373 18.7603C41.3429 19.184 42.3047 18.5034 42.1485 17.5902L41.2804 12.5381L44.9505 8.96173C45.6103 8.31937 45.2457 7.19784 44.336 7.0659L39.263 6.32631L36.9957 1.72909C36.5894 0.909647 35.4123 0.89923 35.0026 1.72909Z" fill="#FFC700"/>
<path d="M61.0026 1.72909L58.7353 6.32631L53.6623 7.0659C52.7526 7.19784 52.388 8.31937 53.0478 8.96173L56.7179 12.5381L55.8498 17.5902C55.6936 18.5034 56.6554 19.1874 57.461 18.7603L61.9991 16.3749L66.5373 18.7603C67.3429 19.184 68.3047 18.5034 68.1485 17.5902L67.2804 12.5381L70.9505 8.96173C71.6103 8.31937 71.2457 7.19784 70.336 7.0659L65.263 6.32631L62.9957 1.72909C62.5894 0.909647 61.4123 0.89923 61.0026 1.72909Z" fill="#FFC700"/>
<path d="M87.0026 1.72909L84.7353 6.32631L79.6623 7.0659C78.7526 7.19784 78.388 8.31937 79.0478 8.96173L82.7179 12.5381L81.8498 17.5902C81.6936 18.5034 82.6554 19.1874 83.461 18.7603L87.9991 16.3749L92.5373 18.7603C93.3429 19.184 94.3047 18.5034 94.1485 17.5902L93.2804 12.5381L96.9505 8.96173C97.6103 8.31937 97.2457 7.19784 96.336 7.0659L91.263 6.32631L88.9957 1.72909C88.5894 0.909647 87.4123 0.89923 87.0026 1.72909Z" fill="#FFC700"/>
<path d="M110.88 7.31585L111.4 7.24003L111.632 6.76864L113.899 2.1718C113.899 2.1717 113.899 2.17161 113.899 2.17151C113.899 2.17148 113.899 2.17145 113.899 2.17142C113.915 2.14057 113.929 2.13018 113.938 2.12487C113.951 2.11737 113.971 2.11051 113.997 2.1106C114.023 2.11068 114.045 2.11778 114.06 2.12654C114.071 2.13321 114.085 2.14448 114.099 2.1727C114.1 2.17289 114.1 2.17308 114.1 2.17326L116.366 6.76864L116.599 7.24003L117.119 7.31585L122.192 8.05544L122.192 8.05554C122.225 8.0602 122.239 8.07017 122.247 8.0778C122.259 8.0882 122.272 8.10605 122.281 8.13107C122.289 8.15608 122.289 8.17834 122.285 8.19387C122.283 8.2053 122.277 8.22217 122.253 8.24526L122.253 8.24554L118.582 11.8219L118.206 12.189L118.295 12.7075L119.163 17.7589C119.163 17.7589 119.163 17.7589 119.163 17.7589C119.169 17.793 119.163 17.8095 119.159 17.8188C119.153 17.832 119.141 17.8494 119.12 17.8648C119.098 17.8802 119.076 17.8873 119.059 17.8888C119.046 17.89 119.029 17.8892 119.003 17.8753L119.003 17.8752L114.464 15.4898L113.999 15.2452L113.534 15.4898L108.996 17.8752L108.993 17.8768C108.966 17.8907 108.95 17.8913 108.938 17.8902C108.922 17.8888 108.901 17.882 108.879 17.8666C108.858 17.8512 108.846 17.8336 108.84 17.8197C108.835 17.8099 108.83 17.793 108.835 17.7592C108.835 17.7591 108.835 17.759 108.836 17.7589L109.703 12.7075L109.793 12.189L109.416 11.8219L105.746 8.24553L105.745 8.24526C105.722 8.22216 105.716 8.2053 105.713 8.19387C105.71 8.17834 105.71 8.15608 105.718 8.13107C105.726 8.10605 105.739 8.0882 105.751 8.0778C105.759 8.07017 105.774 8.0602 105.806 8.05554L105.807 8.05544L110.88 7.31585Z" stroke="#FFC700" stroke-width="2"/>
</svg>
