<svg width="124" height="20" viewBox="0 0 124 20" fill="none" xmlns="http://www.w3.org/2000/svg">
<path d="M9.00262 1.72909L6.73526 6.32631L1.66234 7.0659C0.752621 7.19784 0.388037 8.31937 1.04776 8.96173L4.7179 12.5381L3.84984 17.5902C3.69359 18.5034 4.6554 19.1874 5.46095 18.7603L9.99915 16.3749L14.5373 18.7603C15.3429 19.184 16.3047 18.5034 16.1485 17.5902L15.2804 12.5381L18.9505 8.96173C19.6103 8.31937 19.2457 7.19784 18.336 7.0659L13.263 6.32631L10.9957 1.72909C10.5894 0.909647 9.41234 0.89923 9.00262 1.72909Z" fill="#FFC700"/>
<path d="M35.0026 1.72909L32.7353 6.32631L27.6623 7.0659C26.7526 7.19784 26.388 8.31937 27.0478 8.96173L30.7179 12.5381L29.8498 17.5902C29.6936 18.5034 30.6554 19.1874 31.461 18.7603L35.9991 16.3749L40.5373 18.7603C41.3429 19.184 42.3047 18.5034 42.1485 17.5902L41.2804 12.5381L44.9505 8.96173C45.6103 8.31937 45.2457 7.19784 44.336 7.0659L39.263 6.32631L36.9957 1.72909C36.5894 0.909647 35.4123 0.89923 35.0026 1.72909Z" fill="#FFC700"/>
<path d="M61.0026 1.72909L58.7353 6.32631L53.6623 7.0659C52.7526 7.19784 52.388 8.31937 53.0478 8.96173L56.7179 12.5381L55.8498 17.5902C55.6936 18.5034 56.6554 19.1874 57.461 18.7603L61.9991 16.3749L66.5373 18.7603C67.3429 19.184 68.3047 18.5034 68.1485 17.5902L67.2804 12.5381L70.9505 8.96173C71.6103 8.31937 71.2457 7.19784 70.336 7.0659L65.263 6.32631L62.9957 1.72909C62.5894 0.909647 61.4123 0.89923 61.0026 1.72909Z" fill="#FFC700"/>
<path d="M87.0026 1.72909L84.7353 6.32631L79.6623 7.0659C78.7526 7.19784 78.388 8.31937 79.0478 8.96173L82.7179 12.5381L81.8498 17.5902C81.6936 18.5034 82.6554 19.1874 83.461 18.7603L87.9991 16.3749L92.5373 18.7603C93.3429 19.184 94.3047 18.5034 94.1485 17.5902L93.2804 12.5381L96.9505 8.96173C97.6103 8.31937 97.2457 7.19784 96.336 7.0659L91.263 6.32631L88.9957 1.72909C88.5894 0.909647 87.4123 0.89923 87.0026 1.72909Z" fill="#FFC700"/>
<path d="M113.003 1.72909L110.735 6.32631L105.662 7.0659C104.753 7.19784 104.388 8.31937 105.048 8.96173L108.718 12.5381L107.85 17.5902C107.694 18.5034 108.655 19.1874 109.461 18.7603L113.999 16.3749L118.537 18.7603C119.343 19.184 120.305 18.5034 120.148 17.5902L119.28 12.5381L122.951 8.96173C123.61 8.31937 123.246 7.19784 122.336 7.0659L117.263 6.32631L114.996 1.72909C114.589 0.909647 113.412 0.89923 113.003 1.72909Z" fill="#FFC700"/>
</svg>
