<svg width="18" height="18" viewBox="0 0 18 18" fill="none" xmlns="http://www.w3.org/2000/svg">
<path d="M2.21218 15.7882L1.86725 16.1331L2.21218 15.7882C1.64957 15.2255 1.3335 14.4625 1.3335 13.6668C1.3335 12.8712 1.64957 12.1081 2.21218 11.5455C2.77478 10.9829 3.53785 10.6668 4.3335 10.6668C5.12915 10.6668 5.89221 10.9829 6.45482 11.5455C7.01743 12.1081 7.3335 12.8712 7.3335 13.6668C7.3335 14.4625 7.01743 15.2255 6.45482 15.7882C5.89221 16.3508 5.12915 16.6668 4.3335 16.6668C3.53785 16.6668 2.77478 16.3508 2.21218 15.7882ZM13.6668 16.6668C12.8712 16.6668 12.1081 16.3508 11.5455 15.7882C10.9829 15.2255 10.6668 14.4625 10.6668 13.6668C10.6668 12.8712 10.9829 12.1081 11.5455 11.5455C12.1081 10.9829 12.8712 10.6668 13.6668 10.6668C14.4625 10.6668 15.2255 10.9829 15.7882 11.5455C16.3508 12.1081 16.6668 12.8712 16.6668 13.6668C16.6668 14.4625 16.3508 15.2255 15.7882 15.7882C15.2255 16.3508 14.4625 16.6668 13.6668 16.6668ZM15.7882 2.21218L16.1331 1.86725L15.7882 2.21218C16.3508 2.77478 16.6668 3.53785 16.6668 4.3335C16.6668 5.12915 16.3508 5.89221 15.7882 6.45482C15.2255 7.01743 14.4625 7.3335 13.6668 7.3335C12.8712 7.3335 12.1081 7.01743 11.5455 6.45482C10.9829 5.89221 10.6668 5.12915 10.6668 4.3335C10.6668 3.53785 10.9829 2.77478 11.5455 2.21218C12.1081 1.64957 12.8712 1.3335 13.6668 1.3335C14.4625 1.3335 15.2255 1.64957 15.7882 2.21218ZM4.3335 7.3335C3.53785 7.3335 2.77479 7.01743 2.21218 6.45482C1.64957 5.89221 1.3335 5.12915 1.3335 4.3335C1.3335 3.53785 1.64957 2.77479 2.21218 2.21218C2.77479 1.64957 3.53785 1.3335 4.3335 1.3335C5.12915 1.3335 5.89221 1.64957 6.45482 2.21218C7.01743 2.77479 7.3335 3.53785 7.3335 4.3335C7.3335 5.12915 7.01743 5.89221 6.45482 6.45482C5.89221 7.01743 5.12915 7.3335 4.3335 7.3335Z" stroke="black"/>
</svg>
