<svg width="18" height="18" viewBox="0 0 18 18" fill="none" xmlns="http://www.w3.org/2000/svg">
<path d="M13.6668 17.1666C12.7386 17.1666 11.8483 16.7978 11.192 16.1415C10.5356 15.4851 10.1668 14.5948 10.1668 13.6666C10.1668 12.7383 10.5356 11.8481 11.192 11.1917C11.8483 10.5353 12.7386 10.1666 13.6668 10.1666C14.5951 10.1666 15.4853 10.5353 16.1417 11.1917C16.7981 11.8481 17.1668 12.7383 17.1668 13.6666C17.1668 14.5948 16.7981 15.4851 16.1417 16.1415C15.4853 16.7978 14.5951 17.1666 13.6668 17.1666ZM4.3335 17.1666C3.40524 17.1666 2.515 16.7978 1.85862 16.1415C1.20225 15.4851 0.833496 14.5948 0.833496 13.6666C0.833496 12.7383 1.20225 11.8481 1.85862 11.1917C2.515 10.5353 3.40524 10.1666 4.3335 10.1666C5.26175 10.1666 6.15199 10.5353 6.80837 11.1917C7.46475 11.8481 7.8335 12.7383 7.8335 13.6666C7.8335 14.5948 7.46475 15.4851 6.80837 16.1415C6.15199 16.7978 5.26175 17.1666 4.3335 17.1666ZM13.6668 7.83325C12.7386 7.83325 11.8483 7.4645 11.192 6.80813C10.5356 6.15175 10.1668 5.26151 10.1668 4.33325C10.1668 3.40499 10.5356 2.51476 11.192 1.85838C11.8483 1.202 12.7386 0.833252 13.6668 0.833252C14.5951 0.833252 15.4853 1.202 16.1417 1.85838C16.7981 2.51476 17.1668 3.40499 17.1668 4.33325C17.1668 5.26151 16.7981 6.15175 16.1417 6.80813C15.4853 7.4645 14.5951 7.83325 13.6668 7.83325ZM4.3335 7.83325C3.40524 7.83325 2.515 7.4645 1.85862 6.80813C1.20225 6.15175 0.833496 5.26151 0.833496 4.33325C0.833496 3.40499 1.20225 2.51476 1.85862 1.85838C2.515 1.202 3.40524 0.833252 4.3335 0.833252C5.26175 0.833252 6.15199 1.202 6.80837 1.85838C7.46475 2.51476 7.8335 3.40499 7.8335 4.33325C7.8335 5.26151 7.46475 6.15175 6.80837 6.80813C6.15199 7.4645 5.26175 7.83325 4.3335 7.83325Z" fill="black"/>
</svg>
