<svg width="36" height="32" viewBox="0 0 36 32" fill="none" xmlns="http://www.w3.org/2000/svg">
<path d="M1.75 6.31348L34.25 6.31348C34.9404 6.31348 35.5 5.75387 35.5 5.06348V1.93848C35.5 1.24809 34.9404 0.688477 34.25 0.688477L1.75 0.688477C1.05961 0.688477 0.5 1.24809 0.5 1.93848L0.5 5.06348C0.5 5.75387 1.05961 6.31348 1.75 6.31348ZM1.75 18.8135L34.25 18.8135C34.9404 18.8135 35.5 18.2539 35.5 17.5635V14.4385C35.5 13.7481 34.9404 13.1885 34.25 13.1885L1.75 13.1885C1.05961 13.1885 0.5 13.7481 0.5 14.4385L0.5 17.5635C0.5 18.2539 1.05961 18.8135 1.75 18.8135ZM1.75 31.3135L34.25 31.3135C34.9404 31.3135 35.5 30.7539 35.5 30.0635V26.9385C35.5 26.2481 34.9404 25.6885 34.25 25.6885L1.75 25.6885C1.05961 25.6885 0.5 26.2481 0.5 26.9385L0.5 30.0635C0.5 30.7539 1.05961 31.3135 1.75 31.3135Z" fill="#18CDCA"/>
</svg>
