<svg width="643" height="443" viewBox="0 0 643 443" fill="none" xmlns="http://www.w3.org/2000/svg">
<path d="M0 10C0 4.47715 4.47715 0 10 0H633C638.523 0 643 4.47715 643 10V433C643 438.523 638.523 443 633 443H10C4.47716 443 0 438.523 0 433V10Z" fill="#DDF4F4" fill-opacity="0.9"/>
<mask id="mask0_419_5017" style="mask-type:alpha" maskUnits="userSpaceOnUse" x="0" y="0" width="643" height="443">
<path d="M0 10C0 4.47715 4.47715 0 10 0H633C638.523 0 643 4.47715 643 10V433C643 438.523 638.523 443 633 443H10C4.47716 443 0 438.523 0 433V10Z" fill="#DDF4F4" fill-opacity="0.4"/>
</mask>
<g mask="url(#mask0_419_5017)">
<path d="M729.492 382.396L652.097 294.56H681.77C690.499 294.56 698.22 289.707 701.901 281.883C705.583 274.079 704.372 265.13 698.724 258.539L623.034 170.314H651.021C659.837 170.314 667.781 165.121 671.23 157.104C674.64 149.212 673.032 140.03 667.122 133.73L560.296 19.6956C554.454 13.4348 543.555 13.4348 537.704 19.6956L430.868 133.73C424.958 140.03 423.36 149.212 426.76 157.104C430.209 165.121 438.163 170.314 446.979 170.314H474.966L399.267 258.558C393.638 265.139 392.427 274.079 396.099 281.893C399.78 289.707 407.491 294.56 416.23 294.56H445.903L368.508 382.396C362.695 388.987 361.378 398.014 365.059 405.945C368.692 413.759 376.684 418.806 385.413 418.806H517.999V442.539L488.655 489.519C483.501 499.847 491 512 502.518 512H595.482C607 512 614.499 499.847 609.345 489.519L580.001 442.539V418.806H712.587C721.316 418.806 729.308 413.759 732.941 405.945C736.622 398.014 735.305 388.987 729.492 382.396Z" fill="#18CDCA" fill-opacity="0.5"/>
</g>
</svg>
