<svg width="40" height="40" viewBox="0 0 40 40" fill="none" xmlns="http://www.w3.org/2000/svg">
<path d="M36.0518 27.418H12.79L13.958 25.0391L33.3643 25.0039C34.0205 25.0039 34.583 24.5352 34.7002 23.8867L37.3877 8.84375C37.458 8.44922 37.3525 8.04297 37.0947 7.73438C36.9673 7.5825 36.8084 7.46016 36.6289 7.37585C36.4495 7.29153 36.2539 7.24726 36.0557 7.24609L11.3682 7.16406L11.1572 6.17188C11.0244 5.53906 10.4541 5.07812 9.80566 5.07812H3.77051C3.4048 5.07813 3.05407 5.2234 2.79547 5.482C2.53688 5.74059 2.3916 6.09132 2.3916 6.45703C2.3916 6.82274 2.53688 7.17347 2.79547 7.43207C3.05407 7.69066 3.4048 7.83594 3.77051 7.83594H8.68848L9.61035 12.2187L11.8799 23.207L8.95801 27.9766C8.80627 28.1814 8.71488 28.4245 8.69417 28.6786C8.67346 28.9326 8.72426 29.1874 8.84082 29.4141C9.07519 29.8789 9.54785 30.1719 10.0713 30.1719H12.5244C12.0014 30.8665 11.719 31.7126 11.7197 32.582C11.7197 34.793 13.5166 36.5898 15.7275 36.5898C17.9385 36.5898 19.7353 34.793 19.7353 32.582C19.7353 31.7109 19.4463 30.8633 18.9307 30.1719H25.2236C24.7007 30.8665 24.4182 31.7126 24.4189 32.582C24.4189 34.793 26.2158 36.5898 28.4268 36.5898C30.6377 36.5898 32.4346 34.793 32.4346 32.582C32.4346 31.7109 32.1455 30.8633 31.6299 30.1719H36.0557C36.8135 30.1719 37.4346 29.5547 37.4346 28.793C37.4323 28.4276 37.2856 28.078 37.0266 27.8204C36.7675 27.5629 36.4171 27.4182 36.0518 27.418ZM11.9424 9.88281L34.4346 9.95703L32.2314 22.293L14.5635 22.3242L11.9424 9.88281ZM15.7275 33.8164C15.0479 33.8164 14.4932 33.2617 14.4932 32.582C14.4932 31.9023 15.0479 31.3477 15.7275 31.3477C16.4072 31.3477 16.9619 31.9023 16.9619 32.582C16.9619 32.9094 16.8319 33.2234 16.6004 33.4549C16.3689 33.6864 16.0549 33.8164 15.7275 33.8164ZM28.4268 33.8164C27.7471 33.8164 27.1924 33.2617 27.1924 32.582C27.1924 31.9023 27.7471 31.3477 28.4268 31.3477C29.1064 31.3477 29.6611 31.9023 29.6611 32.582C29.6611 32.9094 29.5311 33.2234 29.2996 33.4549C29.0681 33.6864 28.7541 33.8164 28.4268 33.8164Z" fill="black"/>
</svg>
