<svg width="124" height="22" viewBox="0 0 124 22" fill="none" xmlns="http://www.w3.org/2000/svg">
<g clip-path="url(#clip0_117_865)">
<path d="M10 3L13 9L19 9.75L14.88 14.37L16 21L10 18L4 21L5.13 14.37L1 9.75L7 9L10 3Z" fill="#FFC700"/>
</g>
<path d="M36 3L39 9L45 9.75L40.88 14.37L42 21L36 18L30 21L31.13 14.37L27 9.75L33 9L36 3Z" fill="#FFC700"/>
<path d="M62 3L65 9L71 9.75L66.88 14.37L68 21L62 18L56 21L57.13 14.37L53 9.75L59 9L62 3Z" fill="#FFC700"/>
<path d="M88 3L91 9L97 9.75L92.88 14.37L94 21L88 18L82 21L83.13 14.37L79 9.75L85 9L88 3Z" fill="#FFC700"/>
<path d="M111.156 9.0125L104.8 9.9375L109.4 14.4188L108.313 20.75L114 17.7625V3.25L111.156 9.0125Z" fill="#FFC700"/>
<defs>
<clipPath id="clip0_117_865">
<rect width="20" height="20" fill="white"/>
</clipPath>
</defs>
</svg>
