<svg width="20" height="20" viewBox="0 0 20 20" fill="none" xmlns="http://www.w3.org/2000/svg">
<path d="M6.88038 7.31561L7.40048 7.23978L7.63297 6.7684L9.90014 2.17155C9.90019 2.17146 9.90024 2.17136 9.90028 2.17127C9.9003 2.17124 9.90031 2.17121 9.90033 2.17118C9.91563 2.14033 9.93004 2.12994 9.93902 2.12463C9.95173 2.11713 9.97196 2.11027 9.99802 2.11035C10.0242 2.11044 10.0461 2.11754 10.0608 2.1263C10.072 2.13296 10.0862 2.14424 10.1003 2.17245C10.1004 2.17264 10.1005 2.17283 10.1006 2.17302L12.367 6.7684L12.5995 7.23978L13.1196 7.31561L18.1925 8.05519L18.1933 8.0553C18.2254 8.05995 18.2397 8.06992 18.2484 8.07755C18.2602 8.08796 18.2733 8.10581 18.2815 8.13083C18.2896 8.15584 18.2894 8.1781 18.2859 8.19362C18.2834 8.20506 18.2775 8.22192 18.2538 8.24501L18.2535 8.24529L14.5834 11.8217L14.2066 12.1888L14.2957 12.7072L15.1636 17.7586C15.1636 17.7586 15.1636 17.7586 15.1636 17.7587C15.1695 17.7927 15.1639 17.8093 15.1599 17.8185C15.1541 17.8318 15.1418 17.8492 15.1205 17.8645C15.099 17.88 15.077 17.887 15.0601 17.8886C15.0472 17.8898 15.0301 17.8889 15.0036 17.875L15.0035 17.8749L10.4653 15.4895L10 15.245L9.53473 15.4895L4.99653 17.8749L4.9934 17.8766C4.96727 17.8904 4.95095 17.8911 4.93911 17.89C4.92314 17.8885 4.90163 17.8818 4.88023 17.8663C4.85894 17.851 4.84637 17.8333 4.84036 17.8195C4.83609 17.8097 4.83059 17.7928 4.83631 17.7589C4.83633 17.7588 4.83635 17.7587 4.83637 17.7586L5.70431 12.7072L5.79339 12.1888L5.41665 11.8217L1.74651 8.24529L1.74623 8.24501C1.72251 8.22192 1.71664 8.20506 1.71407 8.19362C1.71058 8.1781 1.71042 8.15584 1.71853 8.13083C1.72665 8.10581 1.73984 8.08796 1.75165 8.07755C1.76032 8.06992 1.77463 8.05995 1.80673 8.0553L1.80746 8.05519L6.88038 7.31561Z" stroke="#FFC700" stroke-width="2"/>
</svg>
