<svg width="75" height="75" viewBox="0 0 75 75" fill="none" xmlns="http://www.w3.org/2000/svg">
<path d="M70.9635 19.4923C71.4453 17.8647 70.9635 16.6667 68.6458 16.6667H60.9766C59.0234 16.6667 58.125 17.6954 57.6432 18.8412C57.6432 18.8412 53.737 28.3595 48.2161 34.5313C46.4323 36.3152 45.612 36.8881 44.6354 36.8881C44.1536 36.8881 43.4115 36.3152 43.4115 34.6876V19.4923C43.4115 17.5391 42.8646 16.6667 41.25 16.6667H29.1927C27.9687 16.6667 27.2396 17.5782 27.2396 18.4246C27.2396 20.2735 30 20.7032 30.2865 25.9115V37.2136C30.2865 39.6876 29.8437 40.1433 28.8672 40.1433C26.263 40.1433 19.9349 30.586 16.1849 19.6485C15.4297 17.5261 14.6875 16.6667 12.7214 16.6667H5.05208C2.86458 16.6667 2.42188 17.6954 2.42188 18.8412C2.42188 20.8725 5.02604 30.9636 14.5443 44.297C20.8854 53.3985 29.8177 58.3334 37.9427 58.3334C42.8255 58.3334 43.4245 57.2397 43.4245 55.3516C43.4245 46.6537 42.9818 45.8334 45.4297 45.8334C46.5625 45.8334 48.5156 46.4063 53.0729 50.7944C58.2812 56.0027 59.1406 58.3334 62.0573 58.3334H69.7266C71.9141 58.3334 73.0208 57.2397 72.3828 55.0782C70.9245 50.5339 61.0677 41.185 60.625 40.56C59.4922 39.1016 59.8177 38.4506 60.625 37.1485C60.638 37.1355 70 23.9584 70.9635 19.4923Z" fill="#18CDCA"/>
</svg>
